Coordinates
version=1
nRows=20
nColumns=34
inDegrees=yes

Units are S.I. units (second, meters, Newtons, ...)
If the header above contains a line with 'inDegrees', this indicates whether rotational values are in degrees (yes) or radians (no).

endheader
time	pelvis_tilt	pelvis_list	pelvis_rotation	pelvis_tx	pelvis_ty	pelvis_tz	hip_flexion_r	hip_adduction_r	hip_rotation_r	knee_angle_r	ankle_angle_r	subtalar_angle_r	mtp_angle_r	hip_flexion_l	hip_adduction_l	hip_rotation_l	knee_angle_l	ankle_angle_l	subtalar_angle_l	mtp_angle_l	lumbar_extension	lumbar_bending	lumbar_rotation	arm_flex_r	arm_add_r	arm_rot_r	elbow_flex_r	pro_sup_r	arm_flex_l	arm_add_l	arm_rot_l	elbow_flex_l	pro_sup_l
      3.50000000	    -23.13248113	    -19.63567749	     -2.12891345	     -7.73239260	      0.79901313	      0.48703801	     59.38145561	     18.03176959	    -10.72724715	     37.68468657	     12.15790414	    -13.25814075	      0.00000000	     -8.22054340	    -13.39221266	    -12.54898002	     37.40907736	     -9.56259897	     -9.93806527	      0.00000000	     -5.74803665	     21.72109064	     -5.76409347	   -131.67236670	   -144.38505473	    147.06698274	    150.00035077	     82.52510224	   -322.51303461	    -15.78820881	   -321.47612206	     93.04221747	    111.73073682
      3.51666670	    -21.31531150	    -17.53876671	     -2.58060974	     -7.69144920	      0.78726868	      0.48960316	     56.85340387	     18.33786167	     -8.82863446	     42.72381766	     14.61404395	    -13.87110548	      0.00000000	     -6.53475148	    -11.27909547	    -12.18789000	     49.88050916	    -14.77137577	    -13.15364846	      0.00000000	     -6.93313101	     19.47224497	     -4.48613587	   -129.56365979	   -145.13927033	    149.11266456	    150.00035077	     82.81676477	   -327.50061703	    -16.46698136	   -322.48539272	     90.09322166	    111.81191785
      3.53333330	    -21.72955518	    -15.82722590	     -3.46795854	     -7.65096413	      0.78422093	      0.48825423	     56.93858699	     18.15895049	     -8.73590428	     49.11993706	     15.31178823	    -18.01872896	      0.00000000	     -3.57887069	     -9.45382328	    -11.87236886	     58.80324603	    -18.96342362	    -14.61794534	      0.00000000	     -5.89587763	     18.34952977	     -4.55216986	   -125.99056320	   -146.97468084	    153.95536502	    148.61417379	     83.11243771	   -334.14490936	    -16.83591495	   -323.43371191	     84.74818746	    112.17546269
      3.55000000	    -20.78983185	    -14.00115827	     -3.48853334	     -7.60547080	      0.78138905	      0.48832587	     54.34657336	     17.44347477	     -7.99998682	     53.84927702	     14.08650357	    -23.82343098	      0.00000000	     -1.24098967	     -7.74215989	    -11.22077629	     65.60546580	    -18.52539973	    -15.74812535	      0.00000000	     -5.94573182	     16.51866555	     -3.89965802	   -123.82995719	   -149.38426000	    154.98161042	    148.26659879	     83.02059687	   -340.89005082	    -16.41268412	   -326.45342552	     78.08002852	    112.25920844
      3.56666670	    -21.75390729	    -10.67880896	     -3.73865043	     -7.56076632	      0.77189489	      0.49044184	     54.11966326	     15.14383464	     -6.62427862	     58.61123174	     12.59682343	    -27.10049264	      0.00000000	      5.15337449	     -5.71038027	    -10.94545598	     70.64870695	      1.82213160	    -14.82636212	      0.00000000	     -4.33806810	     12.73993939	     -3.43881490	   -122.70028986	   -151.83886273	    155.26756564	    148.60337972	     82.66036324	   -346.63165204	    -17.72396131	   -326.47094406	     70.03630213	    112.47706081
      3.58333330	    -26.93824731	     -8.15750834	     -3.19469449	     -7.53275564	      0.76490055	      0.48946119	     56.57838328	     12.99306919	     -5.12247056	     59.69878404	     13.95074827	    -31.13600528	      0.00000000	     25.75448843	     -5.81187309	     -7.52829097	     78.67903630	      8.55455676	    -23.58533262	      0.00000000	      1.51400607	      9.98126177	     -3.51949942	   -121.87956757	   -153.33866778	    154.33045040	    149.00553809	     81.65403801	   -352.40554290	    -18.70652794	   -325.90221555	     60.86968038	    112.62927805
      3.60000000	    -25.38796133	     -9.61891557	     -4.14605380	     -7.48243057	      0.75945080	      0.48945635	     51.62895076	     15.13536724	     -5.23037958	     61.57022725	     20.86079268	    -24.70016074	      0.00000000	     29.98733479	     -9.37370825	     -5.10451699	     80.83695813	     25.35579224	    -14.34271924	      0.00000000	      0.99123316	     11.09385493	     -0.91250630	   -120.46829049	   -152.27899916	    154.65833790	    146.02291402	     81.00454125	   -356.68263059	    -18.33601211	   -328.16162807	     52.74402879	    112.02118906
      3.61666670	    -23.54465272	    -11.13413774	     -4.48223048	     -7.45288353	      0.75829404	      0.48680156	     47.09536539	     17.08076401	     -5.10325262	     63.10285052	     26.13793262	    -23.14944962	      0.00000000	     31.38997946	    -11.20059129	     -2.18561146	     82.49625390	     17.79251283	    -13.53395401	      0.00000000	     -1.20449893	     12.75835133	      1.18852507	   -115.86703187	   -151.87768967	    156.72604503	    143.50248357	     80.39919817	   -359.82928256	    -18.85447978	   -329.24584217	     46.59458335	    111.09374404
      3.63333330	    -23.16474585	    -10.33223932	     -4.90538667	     -7.41127080	      0.75490213	      0.48732775	     43.71247531	     16.32661101	     -4.20583884	     62.74955220	     31.92793178	    -19.49176872	      0.00000000	     40.74668555	    -10.96141328	      1.41577100	     95.71446219	     10.83670233	    -21.38853552	      0.00000000	     -1.68277487	     11.14015891	      2.84733851	   -114.49590860	   -151.37681276	    155.41846675	    142.52487303	     79.71588915	   -364.18180797	    -20.02974920	   -333.47211969	     42.33136672	    109.26451099
      3.65000000	    -24.25890224	     -9.14176214	     -4.96397565	     -7.36533701	      0.75853593	      0.48696610	     39.63011930	     15.01930832	     -3.85563368	     60.78240477	     34.43247011	    -19.51789278	      0.00000000	     50.11176714	     -9.25935405	      4.95018481	    102.75380855	      6.86901166	    -23.14339403	      0.00000000	      0.39204699	      9.46432821	      3.89812120	   -116.60301660	   -150.23780064	    153.87861725	    143.18528328	     79.31866009	   -368.06703468	    -21.63055775	   -336.15157493	     38.83099972	    107.67753950
      3.66666670	    -24.15816083	     -7.78919646	     -3.70431018	     -7.32761996	      0.76190124	      0.48252306	     33.71298659	     12.38145697	     -3.93415067	     57.01391111	     36.11067287	    -17.89635230	      0.00000000	     56.38033387	     -5.95993138	      6.64502500	    104.22677691	     13.51128213	    -23.10061840	      0.00000000	      0.77865023	      7.16315509	      5.29651882	   -117.56983561	   -148.16644158	    150.16469663	    143.73317705	     78.70381365	   -371.88973322	    -23.91716012	   -337.41542735	     36.12982219	    105.97762753
      3.68333330	    -20.87285391	     -6.97147088	     -1.09227605	     -7.28471596	      0.79095506	      0.47284492	     24.39834206	     10.01331160	     -4.31814134	     50.47926895	     27.58068209	    -22.04813884	      0.00000000	     56.93370437	     -2.12387925	      8.03449656	     97.46891008	     21.43542387	    -22.04945299	      0.00000000	     -1.95312902	      5.48579714	      6.05562542	   -122.76137504	   -145.23556322	    145.11609588	    145.40922795	     78.21295984	   -374.10273575	    -25.36765562	   -338.27200585	     33.47215061	    104.29605279
      3.70000000	    -18.50196828	     -5.83878235	      1.58863957	     -7.23718525	      0.79648038	      0.46348136	     15.81277593	      7.33863408	     -6.16927348	     43.60573776	     21.19846102	    -23.32284600	      0.00000000	     56.42047923	      2.18865892	      9.50083797	     88.82464700	     30.56733883	    -17.48952420	      0.00000000	     -3.91718010	      4.21553942	      5.99531219	   -126.91814847	   -142.82144971	    140.61718390	    147.44693045	     77.50757568	   -376.53325188	    -27.04170413	   -337.66562698	     31.41990943	    102.03226505
      3.71666670	    -14.98437417	     -5.49316364	      2.39835891	     -7.18616696	      0.81778902	      0.45299600	      5.52184385	      6.61180896	     -6.84244209	     34.64883523	     15.91276595	    -25.07877717	      0.00000000	     54.05663509	      4.39478257	     11.01858269	     81.40308580	     32.08053942	    -15.79436421	      0.00000000	     -7.58688023	      4.43326708	      7.65665534	   -129.22264459	   -141.32928709	    139.88043043	    146.86284364	     77.33243095	   -376.67114044	    -27.36900724	   -336.23237357	     29.23591162	    100.58841727
      3.73333330	    -12.33634164	     -3.31173146	      3.78159464	     -7.12608298	      0.83418199	      0.45140009	     -3.16249899	      4.27186089	     -7.69548304	     27.04010745	     12.07221966	    -23.41741323	      0.00000000	     50.84899127	      7.49273820	     11.60410355	     72.37989798	     29.77871454	    -15.78181206	      0.00000000	     -9.61094299	      2.16835158	      7.20804127	   -132.84730734	   -141.60485562	    137.91075509	    147.15485344	     77.42925779	   -379.29767766	    -28.54127171	   -335.28826911	     27.74980805	     99.45819598
      3.75000000	    -11.05752370	      1.44545991	      5.32618330	     -7.07320781	      0.83226507	      0.44723137	    -12.78677285	     -0.12241298	     -9.78475018	     20.36874944	      6.72750326	    -16.45864298	      0.00000000	     50.23658856	     12.05182694	      9.68070574	     64.14540026	     22.13974295	    -19.80840141	      0.00000000	     -8.99900232	     -2.72899406	      6.32943194	   -136.77050768	   -142.27955037	    136.38818390	    148.37649890	     77.95359788	   -382.73695187	    -31.67553036	   -335.96229249	     31.63349079	     97.89786605
      3.76666670	    -12.04981795	      5.32976041	      5.85737745	     -7.02123490	      0.83240278	      0.44302054	    -17.36957273	     -4.11444164	    -10.22989677	     16.28945001	      8.81350817	    -10.03761039	      0.00000000	     51.30892750	     15.02264079	      7.77307514	     55.11300847	     15.38780782	    -24.71574552	      0.00000000	     -6.43040142	     -7.62821796	      6.10601638	   -140.47676466	   -143.32293549	    132.07933191	    150.00035077	     79.20492182	   -387.67870331	    -33.49477045	   -340.78263779	     36.80525645	     94.58079054
      3.78333330	    -12.94412857	      8.20011005	      5.78801289	     -6.97425244	      0.83172195	      0.44160596	    -19.21333095	     -7.26039311	     -8.77983457	     15.10711514	     13.20742427	     -7.05752632	      0.00000000	     50.81220357	     16.78314320	      6.73648149	     45.88003506	     10.92177799	    -27.11326286	      0.00000000	     -4.31333699	    -11.24597844	      5.56389245	   -139.97350303	   -144.74112842	    133.54006940	    149.32052335	     80.17501543	   -390.21624418	    -34.77070430	   -343.28387172	     41.19864421	     93.64166052
      3.80000000	    -13.45476614	     10.14039977	      5.79617125	     -6.93604685	      0.84115603	      0.44157183	    -19.47018882	     -9.14634889	     -5.80780901	     16.71303145	     16.89098789	     -7.43271754	      0.00000000	     49.80844461	     17.45600922	      5.16656282	     39.70219117	      8.02852818	    -26.50171352	      0.00000000	     -3.99318136	    -14.02802276	      4.70975704	   -140.11245623	   -145.91851280	    133.98504386	    149.61717706	     80.57019882	   -389.21800344	    -35.00337317	   -344.30639700	     42.46050248	     93.55466204
      3.81666670	    -12.02841702	     11.39350139	      6.90812319	     -6.89261256	      0.84551997	      0.44014128	    -19.42270562	     -9.71644402	     -4.31969688	     25.58729377	     17.43658203	     -8.41163846	      0.00000000	     45.48063644	     18.73591697	      5.37475741	     35.82035599	      3.43554391	    -27.16769839	      0.00000000	     -5.83916883	    -16.19148381	      3.21084849	   -140.65804234	   -146.83367828	    132.53425694	    149.42820543	     81.35583143	   -387.89549946	    -35.20784711	   -346.01713466	     44.51568826	     93.64407074
